<?xml version="1.0" encoding="UTF-8" standalone="no"?>
<svg
   xmlns:dc="http://purl.org/dc/elements/1.1/"
   xmlns:cc="http://creativecommons.org/ns#"
   xmlns:rdf="http://www.w3.org/1999/02/22-rdf-syntax-ns#"
   xmlns:svg="http://www.w3.org/2000/svg"
   xmlns="http://www.w3.org/2000/svg"
   width="52.59734mm"
   height="47.507004mm"
   viewBox="0 0 52.597339 47.507005"
   version="1.1"
   id="svg8">
  <defs
     id="defs2">
    <marker
       orient="auto"
       refY="0"
       refX="0"
       id="Arrow1Lstart"
       style="overflow:visible">
      <path
         id="path4664"
         d="M 0,0 5,-5 -12.5,0 5,5 Z"
         style="fill:#000000;fill-opacity:1;fill-rule:evenodd;stroke:#000000;stroke-width:1.00000003pt;stroke-opacity:1"
         transform="matrix(0.8,0,0,0.8,10,0)" />
    </marker>
  </defs>
  <metadata
     id="metadata5">
    <rdf:RDF>
      <cc:Work
         rdf:about="">
        <dc:format>image/svg+xml</dc:format>
        <dc:type
           rdf:resource="http://purl.org/dc/dcmitype/StillImage" />
        <dc:title></dc:title>
      </cc:Work>
    </rdf:RDF>
  </metadata>
  <g
     id="layer1"
     transform="translate(-69.415101,-154.02713)">
    <g
       transform="matrix(0.07590035,0,0,0.07590035,70.190369,154.65092)"
       style="stroke:#ffffff;stroke-width:7.58889771;stroke-miterlimit:4;stroke-dasharray:none;stroke-opacity:0.99019617"
       id="g5075">
      <path
         style="fill:#808080;fill-opacity:0.99607843;stroke:#ffffff;stroke-width:7.58889771;stroke-linecap:butt;stroke-linejoin:miter;stroke-miterlimit:4;stroke-dasharray:none;stroke-opacity:0.99019617"
         d="m 378.84736,616.57027 c -0.35266,1.55309 -8.45235,1.69909 -23.31882,-0.858 -14.24095,-2.4495 -37.12055,-7.90155 -62.95598,-18.89599 -21.92253,-9.3432 -47.2348,-23.32843 -72.31571,-43.8596 0,0 -3e-5,-2e-5 -3e-5,-2e-5 -21.0909,-17.29435 -41.54497,-38.72624 -60.59588,-64.66135 -18.75066,-25.52314 -35.46886,-54.07628 -50.87386,-86.03705 -15.731552,-32.63694 -28.12219,-68.61113 -36.615795,-107.44879 6e-6,0 -1.2e-5,-5e-5 -1.2e-5,-5e-5 C 64.369446,259.34712 59.76607,221.15601 60.864445,181.66846 61.351469,164.17529 63.050259,146.25174 66.4799,128.26204 69.545071,112.09954 74.15853,95.704507 80.939507,79.708145 87.022223,65.306306 95.146249,51.188281 105.741,38.363872 115.76521,26.269051 128.08185,15.73133 142.31637,7.737603 c 6.59489,-3.6322681 13.44246,-6.5978504 20.43792,-8.9353504 8.73456,-2.9186108 17.63645,-4.8369521 26.48049,-5.867754 17.52635,-2.0615915 34.73872,-1.2165828 51.01831,1.4063254 18.37404,2.9217911 35.96255,7.8704179 52.57025,13.9899938 18.33272,6.7366522 35.7602,14.8957342 52.21742,23.9335212 35.61196,19.532992 67.37383,43.194005 94.82275,69.336391 0,0 3e-5,4e-5 3e-5,4e-5 27.14574,25.67167 50.10334,53.9218 66.29794,85.61988 14.90853,29.43606 26.49742,58.54601 34.76176,87.34542 9.27721,32.33993 13.93291,63.35515 14.93698,92.25173 1.26046,36.84837 -3.49597,69.5801 -10.22884,96.29523 -8.25121,32.68318 -19.82919,58.32015 -28.08586,73.78642 -8.5708,16.0547 -14.75156,23.66931 -16.30733,22.90728 -1.78421,-0.87392 1.13329,-10.08299 6.37097,-27.06091 4.93247,-15.9886 13.10238,-42.68278 17.99877,-73.75574 4.06138,-25.70747 6.26689,-56.55788 3.10881,-90.47745 -2.46395,-26.63863 -8.22075,-55.00569 -18.05762,-84.60782 -8.76876,-26.3987 -20.5871,-53.10202 -35.47214,-80.42554 -14.5017,-26.78083 -35.61052,-51.0003 -61.00612,-74.35413 -2e-5,-10e-6 -3e-5,-3e-5 -4e-5,-4e-5 C 388.47414,105.66847 358.99037,84.471795 326.23805,67.022206 311.14146,58.99054 295.41891,51.806116 279.16616,46.005392 264.41863,40.758558 249.30113,36.562856 234.05152,34.261251 c -13.51014,-2.0049 -27.03244,-2.732398 -39.90557,-1.084107 -6.40443,0.830096 -12.69396,2.165804 -18.64032,4.111313 -4.76308,1.558369 -9.2796,3.499365 -13.44756,5.866352 -9.53477,5.255388 -18.09542,12.616981 -25.2721,21.126286 -7.71351,9.106212 -13.89008,19.881912 -18.90556,31.303356 -5.57392,12.751029 -9.49445,26.423059 -12.33988,40.350369 -3.14994,15.50581 -4.82229,31.34418 -5.50932,47.11602 -1.55484,35.68983 2.07707,70.95514 8.53628,104.2047 0,0 2e-5,5e-5 2e-5,5e-5 7.1242,36.41282 17.60775,70.07891 31.13179,100.70815 13.72158,31.02743 28.24749,58.43703 44.62974,83.04212 16.60206,24.93469 34.23089,45.70153 52.59856,62.85359 10e-6,10e-6 2e-5,2e-5 3e-5,2e-5 21.74718,20.34683 44.17717,35.25305 63.83174,46.08789 22.73066,12.54523 44.78567,21.24749 57.43086,26.3203 13.68332,5.48927 21.05198,8.56374 20.65713,10.30261 z"
         id="path5032" />
      <path
         transform="rotate(-51.274898,88.267057,-393.92777)"
         style="fill:#808080;fill-opacity:0.99607843;stroke:#ffffff;stroke-width:7.58889771;stroke-linecap:butt;stroke-linejoin:miter;stroke-miterlimit:4;stroke-dasharray:none;stroke-opacity:0.99019617"
         d="m -136.09067,522.94818 c -0.47504,1.10436 -5.67148,0.46505 -14.8501,-2.98392 -9.50392,-3.57122 -21.88314,-9.63656 -37.81349,-19.774 0,0 -2e-5,-1e-5 -2e-5,-1e-5 -18.45164,-11.71714 -39.44336,-27.51837 -63.16217,-49.27575 -45.33412,-41.58592 -93.51373,-97.84237 -141.32942,-174.91685 -21.23492,-34.18677 -40.53163,-72.71268 -55.5299,-115.0996 1e-5,0 -2e-5,-5e-5 -2e-5,-5e-5 -11.76777,-33.19862 -21.03083,-69.170401 -25.31331,-106.970799 -3.27112,-28.05058 -3.81819,-58.2444504 2.29385,-88.542037 2.29993,-11.445009 5.88881,-23.232425 11.47251,-34.722679 4.47517,-9.390947 10.90927,-18.696357 19.76558,-26.727144 5.48165,-4.702671 11.5081,-8.339171 17.80263,-10.929711 4.30342,-1.77108 8.71761,-3.04726 13.14977,-3.84363 12.76558,-2.28349 25.06374,-1.68508 36.19613,0.53641 14.10183,2.70536 27.21395,7.39136 39.22678,13.006804 14.99919,6.963557 28.88768,15.357221 41.73444,24.420353 34.07601,24.051672 62.72384,53.118284 86.9456,82.6926338 0,0 3e-5,4.77e-5 3e-5,4.77e-5 34.23763,41.7168685 61.04685,86.0047225 82.13612,128.3136615 23.617115,47.3062 41.725665,90.55342 55.243286,132.21432 12.01339,36.97958 19.245302,69.54916 22.720778,99.4874 3.327698,28.58674 2.697115,52.02788 0.102337,71.04622 -4.304102,31.46209 -13.219312,46.42359 -14.80359,45.96079 -2.226402,-0.65039 1.592399,-17.14457 1.652005,-46.89424 0.04746,-18.36833 -1.596431,-40.00765 -6.882148,-67.02751 -5.545989,-28.30631 -14.348409,-58.54876 -27.753696,-93.78705 -15.109802,-39.67368 -34.224602,-80.56159 -58.771092,-126.24287 -21.54071,-39.99964 -48.07448,-81.632144 -80.95336,-120.256507 -1e-5,4e-6 -4e-5,-4.1e-5 -4e-5,-4.1e-5 -23.3799,-27.4067299 -50.08501,-53.971364 -80.824,-75.133651 -11.55441,-7.95869 -23.59178,-15.169906 -36.14108,-20.870338 -10.11415,-4.556292 -20.3335,-8.26618 -30.50162,-10.085742 -8.03195,-1.351556 -15.70615,-1.9345 -22.27942,-0.520598 -2.12506,0.457328 -4.18856,1.052548 -6.09726,1.797434 -2.79224,1.0897 -5.23961,2.49436 -7.06734,4.245122 -4.26571,3.554726 -7.79236,9.016739 -10.99529,15.183293 -3.88484,7.695051 -6.4965,16.504497 -8.51015,25.758031 -5.36024,24.7523592 -4.87892,51.173705 -2.36713,77.004471 3.47944,34.520689 11.62596,68.044756 22.04782,99.479576 0,0 2e-5,4e-5 2e-5,4e-5 13.30793,40.0629 30.6448,76.92292 49.79286,110.00307 44.45672,76.6368 87.71497,132.43848 128.96349,176.0449 21.57221,22.80633 39.94395,39.49186 56.43578,53.01661 0,0 2e-5,10e-6 2e-5,10e-6 14.76602,12.07845 24.16957,18.77293 32.85424,24.83967 7.742,5.40823 11.93749,8.32655 11.40957,9.55386 z"
         id="path5032-7" />
      <path
         transform="rotate(-122.3666,311.72665,295.90419)"
         style="fill:#ff0031;fill-opacity:1;stroke:#ffffff;stroke-width:7.58889771;stroke-linecap:butt;stroke-linejoin:miter;stroke-miterlimit:4;stroke-dasharray:none;stroke-opacity:0.99019617"
         d="m 408.14291,618.68678 c 0.149,1.3842 -6.31511,4.17855 -19.41232,5.24284 -13.26256,1.07773 -32.4119,0.17268 -56.6487,-6.48053 -24.51606,-6.66768 -52.53293,-18.47445 -82.61837,-38.01865 C 223.90104,562.85808 197.46334,541.14009 172.58945,513.39611 150.26766,488.5221 129.1896,458.67874 112.49571,424.0399 96.218603,390.17759 83.913774,353.07866 75.271999,313.11637 67.040232,275.30553 62.072124,234.75884 62.63021,192.80524 c 0.246576,-18.71238 1.675893,-37.89245 4.836904,-57.185 2.797852,-17.19102 7.11681,-34.70474 13.695724,-51.892888 5.759771,-15.146403 13.629233,-30.190028 24.270192,-43.961597 5.15995,-6.670273 11.04479,-12.918002 17.61249,-18.548448 5.91713,-5.072713 12.35189,-9.612933 19.25898,-13.5009988 13.8557,-7.69208506 28.7102,-13.0228295 43.84528,-16.0435736 15.7628,-3.1292346 31.61332,-3.8735916 46.98544,-2.7122506 34.80743,2.7238393 67.21147,14.1184095 95.38016,29.516313 34.15962,18.563498 63.34836,42.880425 87.43312,69.256641 0,0 3e-5,4.8e-5 3e-5,4.8e-5 29.35001,32.090234 51.60109,67.484824 67.66787,102.782834 16.81971,36.92816 30.13961,71.38399 40.08877,105.2563 9.50343,32.30293 15.099,61.92514 17.18607,89.75452 2.26518,30.27724 -0.0568,56.43684 -4.42722,77.91716 -9.6128,47.04147 -26.42073,68.0944 -27.82897,67.50927 -2.83367,-1.17739 6.96039,-25.66454 10.83741,-70.01223 1.81304,-20.52013 1.73445,-44.7985 -2.39031,-72.80466 -3.79807,-25.84165 -10.74064,-53.063 -21.31488,-83.41166 -11.11457,-31.85498 -25.25164,-64.17333 -42.85839,-99.59828 -15.88522,-31.8578 -37.10292,-63.5575 -64.24849,-91.87026 -1e-5,1e-5 -4e-5,-3e-5 -4e-5,-3e-5 C 366.32618,90.003108 339.97928,68.773104 310.02663,53.142039 285.27942,40.316924 258.00131,30.812164 230.2938,29.111717 c -12.15764,-0.786895 -24.391,-0.187596 -36.11817,2.243106 -11.21429,2.308505 -22.15212,6.241984 -32.10569,11.821281 -4.39666,2.412691 -8.58787,5.38913 -12.53465,8.808864 -4.38028,3.795334 -8.43032,8.111417 -12.10151,12.756337 -7.71545,9.748234 -13.69206,21.343294 -18.54093,33.595184 -5.48321,13.963931 -9.19447,28.842761 -11.8371,43.951891 -2.94291,16.94642 -4.37937,34.17377 -4.83585,51.29366 -1.01984,38.4717 2.99834,76.26276 9.92001,111.93125 7.38291,37.7434 17.774,72.42243 31.75968,104.00475 14.07134,31.89118 32.33059,60.03902 51.87447,84.00394 21.83755,26.74871 45.18916,48.29133 67.98489,65.35701 26.97105,20.14808 51.62246,33.22418 73.79967,41.95087 22.12944,8.64277 38.72556,12.08944 51.45501,14.01748 12.18992,1.84632 18.94452,2.12301 19.12928,3.83944 z"
         id="path5032-3" />
    </g>
  </g>
</svg>
